[{"velocity":60,"note":55,"delay":0,"time":1458747345254},{"velocity":56,"note":48,"delay":0,"time":1458747345255},{"velocity":63,"note":67,"delay":0,"time":1458747345257},{"velocity":77,"note":52,"delay":0,"time":1458747345261},{"velocity":75,"note":64,"delay":0,"time":1458747345264},{"velocity":79,"note":60,"delay":0,"time":1458747345267},{"velocity":0,"note":64,"delay":0,"time":1458747345385},{"velocity":0,"note":52,"delay":0,"time":1458747345392},{"velocity":0,"note":48,"delay":0,"time":1458747345395},{"velocity":0,"note":67,"delay":0,"time":1458747345415},{"velocity":0,"note":60,"delay":0,"time":1458747345428},{"velocity":0,"note":55,"delay":0,"time":1458747345436},{"velocity":71,"note":60,"delay":0,"time":1458747345511},{"velocity":68,"note":55,"delay":0,"time":1458747345515},{"velocity":84,"note":52,"delay":0,"time":1458747345518},{"velocity":72,"note":48,"delay":0,"time":1458747345521},{"velocity":83,"note":64,"delay":0,"time":1458747345525},{"velocity":70,"note":67,"delay":0,"time":1458747345527},{"velocity":0,"note":48,"delay":0,"time":1458747345621},{"velocity":0,"note":64,"delay":0,"time":1458747345624},{"velocity":0,"note":67,"delay":0,"time":1458747345640},{"velocity":0,"note":60,"delay":0,"time":1458747345650},{"velocity":0,"note":52,"delay":0,"time":1458747345653},{"velocity":0,"note":55,"delay":0,"time":1458747345683},{"velocity":76,"note":50,"delay":0,"time":1458747346106},{"velocity":63,"note":53,"delay":0,"time":1458747346109},{"velocity":58,"note":47,"delay":0,"time":1458747346112},{"velocity":72,"note":59,"delay":0,"time":1458747346128},{"velocity":69,"note":62,"delay":0,"time":1458747346134},{"velocity":58,"note":65,"delay":0,"time":1458747346138},{"velocity":0,"note":47,"delay":0,"time":1458747346222},{"velocity":0,"note":50,"delay":0,"time":1458747346225},{"velocity":0,"note":62,"delay":0,"time":1458747346235},{"velocity":0,"note":65,"delay":0,"time":1458747346248},{"velocity":0,"note":53,"delay":0,"time":1458747346254},{"velocity":0,"note":59,"delay":0,"time":1458747346257},{"velocity":76,"note":53,"delay":0,"time":1458747346369},{"velocity":78,"note":47,"delay":0,"time":1458747346373},{"velocity":75,"note":65,"delay":0,"time":1458747346375},{"velocity":83,"note":50,"delay":0,"time":1458747346379},{"velocity":80,"note":62,"delay":0,"time":1458747346382},{"velocity":78,"note":59,"delay":0,"time":1458747346385},{"velocity":0,"note":47,"delay":0,"time":1458747346478},{"velocity":0,"note":62,"delay":0,"time":1458747346492},{"velocity":0,"note":65,"delay":0,"time":1458747346510},{"velocity":0,"note":50,"delay":0,"time":1458747346516},{"velocity":0,"note":59,"delay":0,"time":1458747346519},{"velocity":0,"note":53,"delay":0,"time":1458747346525},{"velocity":77,"note":48,"delay":0,"time":1458747346935},{"velocity":64,"note":52,"delay":0,"time":1458747346946},{"velocity":54,"note":45,"delay":0,"time":1458747346949},{"velocity":48,"note":64,"delay":0,"time":1458747346964},{"velocity":65,"note":60,"delay":0,"time":1458747346974},{"velocity":63,"note":57,"delay":0,"time":1458747346977},{"velocity":0,"note":45,"delay":0,"time":1458747347064},{"velocity":0,"note":60,"delay":0,"time":1458747347076},{"velocity":0,"note":48,"delay":0,"time":1458747347079},{"velocity":0,"note":64,"delay":0,"time":1458747347099},{"velocity":0,"note":52,"delay":0,"time":1458747347106},{"velocity":0,"note":57,"delay":0,"time":1458747347113},{"velocity":66,"note":52,"delay":0,"time":1458747347223},{"velocity":78,"note":48,"delay":0,"time":1458747347227},{"velocity":68,"note":45,"delay":0,"time":1458747347234},{"velocity":63,"note":64,"delay":0,"time":1458747347236},{"velocity":65,"note":57,"delay":0,"time":1458747347240},{"velocity":75,"note":60,"delay":0,"time":1458747347243},{"velocity":0,"note":45,"delay":0,"time":1458747347342},{"velocity":0,"note":48,"delay":0,"time":1458747347378},{"velocity":0,"note":60,"delay":0,"time":1458747347402},{"velocity":0,"note":52,"delay":0,"time":1458747347405},{"velocity":0,"note":64,"delay":0,"time":1458747347409},{"velocity":0,"note":57,"delay":0,"time":1458747347445},{"velocity":78,"note":43,"delay":0,"time":1458747347512},{"velocity":75,"note":45,"delay":0,"time":1458747347514},{"velocity":0,"note":45,"delay":0,"time":1458747347586},{"velocity":76,"note":59,"delay":0,"time":1458747347818},{"velocity":0,"note":43,"delay":0,"time":1458747347851},{"velocity":83,"note":40,"delay":0,"time":1458747348094},{"velocity":0,"note":59,"delay":0,"time":1458747348141},{"velocity":58,"note":55,"delay":0,"time":1458747348387},{"velocity":44,"note":48,"delay":0,"time":1458747348687},{"velocity":0,"note":55,"delay":0,"time":1458747348751},{"velocity":0,"note":40,"delay":0,"time":1458747348897},{"velocity":48,"note":53,"delay":0,"time":1458747348968},{"velocity":0,"note":48,"delay":0,"time":1458747349001},{"velocity":54,"note":38,"delay":0,"time":1458747349254},{"velocity":0,"note":53,"delay":0,"time":1458747349466},{"velocity":58,"note":52,"delay":0,"time":1458747349579},{"velocity":22,"note":50,"delay":0,"time":1458747349888},{"velocity":0,"note":52,"delay":0,"time":1458747349893},{"velocity":56,"note":48,"delay":0,"time":1458747350214},{"velocity":0,"note":50,"delay":0,"time":1458747350217},{"velocity":0,"note":38,"delay":0,"time":1458747350296},{"velocity":77,"note":36,"delay":0,"time":1458747350488},{"velocity":0,"note":48,"delay":0,"time":1458747350766},{"velocity":53,"note":47,"delay":0,"time":1458747350786},{"velocity":0,"note":47,"delay":0,"time":1458747351151},{"velocity":65,"note":45,"delay":0,"time":1458747351168},{"velocity":68,"note":47,"delay":0,"time":1458747351830},{"velocity":0,"note":45,"delay":0,"time":1458747351870},{"velocity":95,"note":48,"delay":0,"time":1458747352446},{"velocity":0,"note":47,"delay":0,"time":1458747352464},{"velocity":0,"note":48,"delay":0,"time":1458747354461},{"velocity":0,"note":36,"delay":0,"time":1458747354517}]
