[{"velocity":38,"note":50,"delay":0,"time":1458747475672},{"velocity":56,"note":53,"delay":0,"time":1458747476025},{"velocity":0,"note":50,"delay":0,"time":1458747476078},{"velocity":0,"note":53,"delay":0,"time":1458747476365},{"velocity":78,"note":43,"delay":0,"time":1458747476389},{"velocity":0,"note":43,"delay":0,"time":1458747476676},{"velocity":71,"note":55,"delay":0,"time":1458747476722},{"velocity":0,"note":55,"delay":0,"time":1458747476931},{"velocity":58,"note":59,"delay":0,"time":1458747476974},{"velocity":56,"note":58,"delay":0,"time":1458747477115},{"velocity":0,"note":59,"delay":0,"time":1458747477121},{"velocity":0,"note":58,"delay":0,"time":1458747477153},{"velocity":79,"note":62,"delay":0,"time":1458747477227},{"velocity":0,"note":62,"delay":0,"time":1458747477381},{"velocity":76,"note":67,"delay":0,"time":1458747477428},{"velocity":0,"note":67,"delay":0,"time":1458747477533},{"velocity":85,"note":71,"delay":0,"time":1458747477734},{"velocity":66,"note":74,"delay":0,"time":1458747477982},{"velocity":0,"note":71,"delay":0,"time":1458747478006},{"velocity":0,"note":74,"delay":0,"time":1458747478162},{"velocity":66,"note":67,"delay":0,"time":1458747478222},{"velocity":73,"note":76,"delay":0,"time":1458747478505},{"velocity":0,"note":67,"delay":0,"time":1458747478516},{"velocity":52,"note":77,"delay":0,"time":1458747478774},{"velocity":0,"note":76,"delay":0,"time":1458747478909},{"velocity":0,"note":77,"delay":0,"time":1458747478924},{"velocity":56,"note":71,"delay":0,"time":1458747478982},{"velocity":0,"note":71,"delay":0,"time":1458747479291},{"velocity":44,"note":77,"delay":0,"time":1458747479307},{"velocity":63,"note":73,"delay":0,"time":1458747479505},{"velocity":0,"note":77,"delay":0,"time":1458747479514},{"velocity":58,"note":68,"delay":0,"time":1458747479535},{"velocity":0,"note":73,"delay":0,"time":1458747479717},{"velocity":0,"note":68,"delay":0,"time":1458747479945},{"velocity":53,"note":69,"delay":0,"time":1458747479971},{"velocity":0,"note":69,"delay":0,"time":1458747480056},{"velocity":73,"note":57,"delay":0,"time":1458747480205},{"velocity":0,"note":57,"delay":0,"time":1458747480310},{"velocity":48,"note":58,"delay":0,"time":1458747480314},{"velocity":0,"note":58,"delay":0,"time":1458747480477},{"velocity":54,"note":60,"delay":0,"time":1458747480650},{"velocity":0,"note":60,"delay":0,"time":1458747480827},{"velocity":71,"note":50,"delay":0,"time":1458747480941},{"velocity":0,"note":50,"delay":0,"time":1458747481115}]